<?xml version="1.0" encoding="utf-8"?>
<!DOCTYPE svg PUBLIC "-//W3C//DTD SVG 1.1//EN" "http://www.w3.org/Graphics/SVG/1.1/DTD/svg11.dtd">
<svg xmlns="http://www.w3.org/2000/svg" xmlns:xlink="http://www.w3.org/1999/xlink" version="1.1" id="Layer_1" x="0px" y="0px" width="500px" height="500px" viewBox="0 0 500 500" enable-background="new 0 0 500 500" xml:space="preserve"><g id="W"><circle id="Green_Back_Circle" fill='#008303' cx="244.004" cy="242.229" r="207.692"/><g><path fill='#FFFFFF' d="M251.223,415.646c-4.489,0-8.205-3.491-8.483-7.972l-10.392-166.918l-77.804,169.929c-1.384,3.022-4.404,4.961-7.729,4.961H86.24c-4.45,0-8.147-3.433-8.477-7.871L55.655,109.921c-0.175-2.357,0.639-4.681,2.248-6.413s3.865-2.716,6.229-2.716h63.87c4.549,0,8.292,3.582,8.492,8.127l7.212,164.071l75.64-167.201c1.376-3.042,4.405-4.997,7.744-4.997h59.034c4.472,0,8.179,3.464,8.48,7.925l11.147,164.52l71.697-167.293c1.339-3.125,4.412-5.152,7.812-5.152h65.078c2.903,0,5.605,1.481,7.166,3.929c1.562,2.447,1.766,5.522,0.541,8.155L319.551,410.729c-1.394,2.998-4.4,4.916-7.707,4.916H251.223z"/><path fill='#008303' d="M450.34,109.292L311.844,407.146h-60.621l-12.498-200.737l-91.911,200.737H86.24L64.132,109.292h63.87l8.775,199.635l90.313-199.635h59.034l13.534,199.743l85.604-199.743H450.34M450.34,92.292h-65.078c-6.801,0-12.946,4.053-15.625,10.303l-57.791,134.845l-8.761-129.297c-0.604-8.922-8.019-15.851-16.961-15.851H227.09c-6.677,0-12.736,3.909-15.489,9.993l-60.967,134.766l-5.648-128.506c-0.399-9.09-7.885-16.253-16.983-16.253h-63.87c-4.727,0-9.241,1.968-12.458,5.433c-3.217,3.464-4.846,8.111-4.496,12.826l22.108,297.854c0.659,8.876,8.052,15.741,16.953,15.741h60.575c6.649,0,12.688-3.877,15.457-9.923l63.698-139.119l8.286,133.099c0.558,8.961,7.989,15.943,16.967,15.943h60.621c6.613,0,12.627-3.836,15.415-9.832l138.496-297.854c2.448-5.265,2.04-11.415-1.082-16.31S456.146,92.292,450.34,92.292L450.34,92.292z"/></g></g></svg>
